<svg xmlns="http://www.w3.org/2000/svg" viewBox="0 0 1024 1024">
  <defs><clipPath id="sq"><rect x="0" y="0" width="1024" height="1024" rx="224" ry="224"/></clipPath></defs>
  <g clip-path="url(#sq)">
    <rect width="1024" height="1024" fill="#F4F1EC"/>
    <g fill="none" stroke-linecap="round" stroke-linejoin="round" stroke-width="34">
      <path d="M 138.0 580.0 L 139.8 573.0 L 141.8 566.1 L 144.0 559.3 L 146.6 552.6 L 149.4 546.0 L 152.4 539.5 L 155.9 533.2 L 159.8 527.0 L 164.0 521.0 L 168.6 515.2 L 173.7 509.5 L 179.3 504.2 L 185.1 499.7 L 191.2 495.6 L 197.5 492.1 L 204.1 489.3 L 210.9 487.0 L 217.9 485.2 L 225.2 484.2 L 232.8 483.7 L 240.3 483.7 L 247.8 484.4 L 255.1 485.5 L 262.3 486.7 L 269.3 488.5 L 276.2 490.6 L 282.9 493.1 L 289.6 495.7 L 296.2 498.4 L 302.7 501.6 L 309.0 504.9 L 315.4 508.3 L 321.7 511.8 L 327.9 515.6 L 334.0 519.5 L 340.1 523.5 L 346.1 527.6 L 352.1 532.0 L 358.0 536.4" stroke="#E8402B"/>
      <path d="M 402.0 580.0 L 403.8 573.0 L 405.8 566.1 L 408.0 559.3 L 410.6 552.6 L 413.4 546.0 L 416.4 539.5 L 419.9 533.2 L 423.8 527.0 L 428.0 521.0 L 432.6 515.2 L 437.7 509.5 L 443.3 504.2 L 449.1 499.7 L 455.2 495.6 L 461.5 492.1 L 468.1 489.3 L 474.9 487.0 L 481.9 485.2 L 489.2 484.2 L 496.8 483.7 L 504.3 483.7 L 511.8 484.4 L 519.1 485.5 L 526.3 486.7 L 533.3 488.5 L 540.2 490.6 L 546.9 493.1 L 553.6 495.7 L 560.2 498.4 L 566.7 501.6 L 573.0 504.9 L 579.4 508.3 L 585.7 511.8 L 591.9 515.6 L 598.0 519.5 L 604.1 523.5 L 610.1 527.6 L 616.1 532.0 L 622.0 536.4" stroke="#2EB872"/>
      <path d="M 666.0 580.0 L 667.8 573.0 L 669.8 566.1 L 672.0 559.3 L 674.6 552.6 L 677.4 546.0 L 680.4 539.5 L 683.9 533.2 L 687.8 527.0 L 692.0 521.0 L 696.6 515.2 L 701.7 509.5 L 707.3 504.2 L 713.1 499.7 L 719.2 495.6 L 725.5 492.1 L 732.1 489.3 L 738.9 487.0 L 745.9 485.2 L 753.2 484.2 L 760.8 483.7 L 768.3 483.7 L 775.8 484.4 L 783.1 485.5 L 790.3 486.7 L 797.3 488.5 L 804.2 490.6 L 810.9 493.1 L 817.6 495.7 L 824.2 498.4 L 830.7 501.6 L 837.0 504.9 L 843.4 508.3 L 849.7 511.8 L 855.9 515.6 L 862.0 519.5 L 868.1 523.5 L 874.1 527.6 L 880.1 532.0 L 886.0 536.4" stroke="#2E7BE8"/>
      
    </g>
    
  </g>
</svg>