<svg xmlns="http://www.w3.org/2000/svg" viewBox="0 0 1024 1024">
  <defs><clipPath id="sq"><rect x="0" y="0" width="1024" height="1024" rx="224" ry="224"/></clipPath></defs>
  <g clip-path="url(#sq)">
    <rect width="1024" height="1024" fill="#0E0E10"/>
    <g fill="none" stroke-linecap="round" stroke-linejoin="round" stroke-width="28">
      <path d="M 161.0 520.0 L 162.5 513.9 L 164.3 508.0 L 166.2 502.1 L 168.4 496.3 L 170.9 490.6 L 173.5 485.0 L 176.5 479.6 L 179.8 474.2 L 183.5 469.1 L 187.4 464.0 L 191.9 459.2 L 196.7 454.6 L 201.7 450.6 L 207.0 447.1 L 212.4 444.1 L 218.1 441.6 L 224.0 439.7 L 230.0 438.1 L 236.3 437.3 L 242.9 436.8 L 249.4 436.8 L 255.8 437.5 L 262.1 438.3 L 268.4 439.4 L 274.4 441.0 L 280.4 442.8 L 286.2 444.9 L 291.9 447.2 L 297.6 449.6 L 303.2 452.3 L 308.7 455.2 L 314.2 458.0 L 319.6 461.1 L 325.0 464.4 L 330.3 467.8 L 335.5 471.2 L 340.8 474.7 L 345.9 478.5 L 351.0 482.4" stroke="#E8402B"/>
      <path d="M 417.0 520.0 L 418.5 513.9 L 420.3 508.0 L 422.2 502.1 L 424.4 496.3 L 426.9 490.6 L 429.5 485.0 L 432.5 479.6 L 435.8 474.2 L 439.5 469.1 L 443.4 464.0 L 447.9 459.2 L 452.7 454.6 L 457.7 450.6 L 463.0 447.1 L 468.4 444.1 L 474.1 441.6 L 480.0 439.7 L 486.0 438.1 L 492.3 437.3 L 498.9 436.8 L 505.4 436.8 L 511.8 437.5 L 518.1 438.3 L 524.4 439.4 L 530.4 441.0 L 536.4 442.8 L 542.2 444.9 L 547.9 447.2 L 553.6 449.6 L 559.2 452.3 L 564.7 455.2 L 570.2 458.0 L 575.6 461.1 L 581.0 464.4 L 586.3 467.8 L 591.5 471.2 L 596.8 474.7 L 601.9 478.5 L 607.0 482.4" stroke="#2EB872"/>
      <path d="M 673.0 520.0 L 674.5 513.9 L 676.3 508.0 L 678.2 502.1 L 680.4 496.3 L 682.9 490.6 L 685.5 485.0 L 688.5 479.6 L 691.8 474.2 L 695.5 469.1 L 699.4 464.0 L 703.9 459.2 L 708.7 454.6 L 713.7 450.6 L 719.0 447.1 L 724.4 444.1 L 730.1 441.6 L 736.0 439.7 L 742.0 438.1 L 748.3 437.3 L 754.9 436.8 L 761.4 436.8 L 767.8 437.5 L 774.1 438.3 L 780.4 439.4 L 786.4 441.0 L 792.4 442.8 L 798.2 444.9 L 803.9 447.2 L 809.6 449.6 L 815.2 452.3 L 820.7 455.2 L 826.2 458.0 L 831.6 461.1 L 837.0 464.4 L 842.3 467.8 L 847.5 471.2 L 852.8 474.7 L 857.9 478.5 L 863.0 482.4" stroke="#2E7BE8"/>
    </g>
    <rect x="160" y="600" width="704" height="20" rx="10" fill="#B8894A"/>
  </g>
</svg>
