<svg xmlns="http://www.w3.org/2000/svg" viewBox="0 0 1400 400">
  <!-- TRGB-02 Wordmark white — gobbette originali riscalate -->
  <g>
    <path d="M 50.0 218.9 L 50.7 216.2 L 51.5 213.5 L 52.4 210.8 L 53.4 208.2 L 54.4 205.6 L 55.7 203.0 L 57.1 200.6 L 58.6 198.1 L 60.2 195.8 L 62.0 193.5 L 64.1 191.3 L 66.2 189.1 L 68.5 187.4 L 70.9 185.8 L 73.4 184.4 L 75.9 183.3 L 78.7 182.4 L 81.4 181.7 L 84.3 181.3 L 87.2 181.1 L 90.2 181.1 L 93.2 181.4 L 96.0 181.8 L 98.8 182.3 L 101.6 183.0 L 104.4 183.8 L 107.0 184.8 L 109.6 185.8 L 112.2 186.9 L 114.7 188.1 L 117.2 189.5 L 119.8 190.8 L 122.2 192.2 L 124.6 193.7 L 127.0 195.1 L 129.4 196.8 L 131.8 198.4 L 134.2 200.1 L 136.5 201.8" fill="none" stroke="#FFFFFF" stroke-width="11.5" stroke-linecap="round" stroke-linejoin="round"/>
    <path d="M 181.8 218.9 L 182.4 216.2 L 183.2 213.5 L 184.2 210.8 L 185.1 208.2 L 186.2 205.6 L 187.4 203.0 L 188.8 200.6 L 190.3 198.1 L 192.0 195.8 L 193.8 193.5 L 195.8 191.3 L 198.0 189.1 L 200.3 187.4 L 202.7 185.8 L 205.2 184.4 L 207.7 183.3 L 210.4 182.4 L 213.1 181.7 L 216.0 181.3 L 219.0 181.1 L 222.0 181.1 L 224.9 181.4 L 227.8 181.8 L 230.6 182.3 L 233.4 183.0 L 236.1 183.8 L 238.8 184.8 L 241.4 185.8 L 243.9 186.9 L 246.5 188.1 L 249.0 189.5 L 251.5 190.8 L 254.0 192.2 L 256.4 193.7 L 258.8 195.1 L 261.2 196.8 L 263.5 198.4 L 265.9 200.1 L 268.2 201.8" fill="none" stroke="#FFFFFF" stroke-width="11.5" stroke-linecap="round" stroke-linejoin="round"/>
    <path d="M 313.5 218.9 L 314.2 216.2 L 315.0 213.5 L 315.9 210.8 L 316.9 208.2 L 318.0 205.6 L 319.2 203.0 L 320.6 200.6 L 322.1 198.1 L 323.7 195.8 L 325.6 193.5 L 327.6 191.3 L 329.8 189.1 L 332.1 187.4 L 334.4 185.8 L 336.9 184.4 L 339.5 183.3 L 342.2 182.4 L 344.9 181.7 L 347.8 181.3 L 350.8 181.1 L 353.7 181.1 L 356.7 181.4 L 359.6 181.8 L 362.4 182.3 L 365.2 183.0 L 367.9 183.8 L 370.5 184.8 L 373.2 185.8 L 375.7 186.9 L 378.3 188.1 L 380.7 189.5 L 383.3 190.8 L 385.8 192.2 L 388.1 193.7 L 390.5 195.1 L 392.9 196.8 L 395.3 198.4 L 397.7 200.1 L 400.0 201.8" fill="none" stroke="#FFFFFF" stroke-width="11.5" stroke-linecap="round" stroke-linejoin="round"/>
  </g>
  <text x="460" y="280" font-family="Helvetica Neue, Arial, sans-serif" font-weight="800" font-size="220" letter-spacing="-4" fill="#FFFFFF">TRGB</text>
</svg>